<svg id="Layer_5" enable-background="new 0 0 64 64" height="512" viewBox="0 0 64 64" width="512" xmlns="http://www.w3.org/2000/svg" xmlns:xlink="http://www.w3.org/1999/xlink"><linearGradient id="SVGID_1_" gradientUnits="userSpaceOnUse" x1="31.854" x2="31.854" y1="63" y2=".586"><stop offset="0" stop-color="#9f2fff"/><stop offset="1" stop-color="#0bb1d3"/></linearGradient><path d="m51 43.184v-27.184c0-1.654-1.346-3-3-3h-3c0-1.103-.897-2-2-2h-2c-1.103 0-2 .897-2 2h-4c0-1.103-.897-2-2-2h-2c-1.103 0-2 .897-2 2h-6c0-1.103-.897-2-2-2h-2c-1.103 0-2 .897-2 2h-4c0-1.103-.897-2-2-2h-2c-1.103 0-2 .897-2 2h-3c-1.654 0-3 1.346-3 3v44c0 1.654 1.346 3 3 3h44c1.654 0 3-1.346 3-3v-3.184c1.161-.414 2-1.514 2-2.816 0-.771-.301-1.468-.78-2 .48-.532.78-1.229.78-2s-.301-1.468-.78-2c.48-.532.78-1.229.78-2 0-1.302-.839-2.402-2-2.816zm0 6.816c0 .552-.449 1-1 1h-4c-.551 0-1-.448-1-1s.449-1 1-1h4c.551 0 1 .448 1 1zm-12 11c-4.411 0-8-3.589-8-8v-.507c0-1.45.394-2.873 1.14-4.116l.226-.377h.148c1.871 0 3.628-.729 4.95-2.051l.536-.535v1.586c-1.654 0-3 1.346-3 3s1.346 3 3 3h2c.551 0 1 .448 1 1s-.449 1-1 1h-2c-.551 0-1-.448-1-1h-2c0 1.654 1.346 3 3 3v2h2v-2c1.654 0 3-1.346 3-3s-1.346-3-3-3h-2c-.551 0-1-.448-1-1s.449-1 1-1h2c.551 0 1 .448 1 1h2c0-1.654-1.346-3-3-3v-2h3c.065 0 .126-.016.19-.019-.116.319-.19.66-.19 1.019 0 .771.301 1.468.78 2-.48.532-.78 1.229-.78 2s.301 1.468.78 2c-.48.532-.78 1.229-.78 2 0 1.627 1.303 2.948 2.919 2.992-1.41 2.439-4.03 4.008-6.919 4.008zm4-18h-5.414l-1.536 1.535c-.944.944-2.199 1.465-3.535 1.465h-1.281l-.808 1.348c-.933 1.553-1.426 3.333-1.426 5.145v.507c0 .32.018.636.048.948-.021-.016-.046-.027-.067-.044l-2.981-2.385v-7.038l2.981-2.385c.884-.707 1.993-1.096 3.123-1.096h12.896c0 1.103-.897 2-2 2zm-5-8.879v2.879h2v-2.879c0-.618.503-1.121 1.121-1.121h.343c1.398 0 2.536 1.138 2.536 2.535 0 .677-.264 1.313-.743 1.793l-1.671 1.672h-5.172l-1.671-1.672c-.479-.479-.743-1.116-.743-1.793 0-1.397 1.138-2.535 2.536-2.535h.343c.618 0 1.121.503 1.121 1.121zm-4.671 4.621.257.258h-1.482c-.371 0-.74.036-1.104.094v-6.094h1.777c-.49.724-.777 1.597-.777 2.535 0 1.211.472 2.351 1.329 3.207zm-4.329-1.742h-6v-4h6zm-8 0h-6v-4h6zm0 2v4h-6v-4zm2 0h6v.749c-.446.221-.877.472-1.268.784l-3.083 2.467h-1.649zm21.414 0 .258-.258c.124-.124.221-.265.329-.4v.658zm.586-8h-3.536-.343-2.121v-4h6zm-8 0h-.121-.343-5.536v-4h6zm-8 0h-6v-4h6zm-8 0h-6v-4h6zm-8 0h-6v-4h6zm-6 2h6v4h-6zm0 6h6v4h-6zm0 6h17v6h-17zm0 8h6v4h-6zm8 0h6v4h-6zm8 0h1.649l3.083 2.466c.585.468 1.235.829 1.933 1.088.057.15.112.3.176.446h-6.841zm23-6c-.551 0-1-.448-1-1s.449-1 1-1h4c.551 0 1 .448 1 1s-.449 1-1 1zm-5-34h2l.001 4h-2.001zm-10 0h2l.001 4h-2.001zm-12 0h2l.001 4h-2.001zm-10 0h2l.001 4h-2.001zm-5 2h3v2c0 1.103.897 2 2 2h2c1.103 0 2-.897 2-2v-2h4v2c0 1.103.897 2 2 2h2c1.103 0 2-.897 2-2v-2h6v2c0 1.103.897 2 2 2h2c1.103 0 2-.897 2-2v-2h4v2c0 1.103.897 2 2 2h2c1.103 0 2-.897 2-2v-2h3c.551 0 1 .448 1 1v5h-46v-5c0-.552.449-1 1-1zm0 46c-.551 0-1-.448-1-1v-37h46v20h-2.556c.344-.591.556-1.268.556-2v-16h-42v34h26.019c.571.758 1.246 1.431 2.006 2zm44 0h-3.015c1.365-1.021 2.475-2.385 3.18-4h.835v3c0 .552-.449 1-1 1zm2-6h-4c-.551 0-1-.448-1-1s.449-1 1-1h4c.551 0 1 .448 1 1s-.449 1-1 1zm7-23c0 .552-.448 1-1 1s-1-.448-1-1 .448-1 1-1 1 .448 1 1zm0-4c0 .552-.448 1-1 1s-1-.448-1-1 .448-1 1-1 1 .448 1 1zm0-4c0 .552-.448 1-1 1s-1-.448-1-1 .448-1 1-1 1 .448 1 1zm-1-23.414 6.707 6.707-1.414 1.414-4.293-4.293v16.586h-2v-16.586l-4.293 4.293-1.414-1.414z" fill="url(#SVGID_1_)"/></svg>