<svg id="GD001" height="512" viewBox="0 0 512 512" width="512" xmlns="http://www.w3.org/2000/svg" xmlns:xlink="http://www.w3.org/1999/xlink"><linearGradient id="New_Gradient_Swatch_2" gradientUnits="userSpaceOnUse" x1="96" x2="96" y1="16.216" y2="384.675"><stop offset="0" stop-color="#fc5c7d"/><stop offset=".129" stop-color="#f35e85"/><stop offset=".343" stop-color="#d9659b"/><stop offset=".616" stop-color="#b070bf"/><stop offset=".934" stop-color="#777ff0"/><stop offset="1" stop-color="#6a82fb"/></linearGradient><linearGradient id="New_Gradient_Swatch_2-3" x1="256" x2="256" xlink:href="#New_Gradient_Swatch_2" y1="16.216" y2="384.675"/><linearGradient id="New_Gradient_Swatch_2-4" x1="328" x2="328" xlink:href="#New_Gradient_Swatch_2" y1="16.216" y2="384.675"/><linearGradient id="New_Gradient_Swatch_2-6" x1="192" x2="192" xlink:href="#New_Gradient_Swatch_2" y1="16.216" y2="384.675"/><linearGradient id="New_Gradient_Swatch_2-7" x1="176" x2="176" xlink:href="#New_Gradient_Swatch_2" y1="16.216" y2="384.675"/><linearGradient id="New_Gradient_Swatch_2-8" x1="320" x2="320" xlink:href="#New_Gradient_Swatch_2" y1="16.216" y2="384.675"/><linearGradient id="New_Gradient_Swatch_2-9" x1="288" x2="288" xlink:href="#New_Gradient_Swatch_2" y1="16.216" y2="384.675"/><linearGradient id="New_Gradient_Swatch_2-11" x1="224" x2="224" xlink:href="#New_Gradient_Swatch_2" y1="16.216" y2="384.675"/><linearGradient id="New_Gradient_Swatch_2-13" x1="416" x2="416" xlink:href="#New_Gradient_Swatch_2" y1="16.216" y2="384.675"/><path d="m96 344a72 72 0 1 0 72 72 72.081 72.081 0 0 0 -72-72zm-24 122.586v-2.586a24 24 0 1 1 48 0v2.586a55.9 55.9 0 0 1 -48 0zm8-58.586a16 16 0 1 1 16 16 16.019 16.019 0 0 1 -16-16zm55.191 47.95a39.715 39.715 0 0 0 -10.9-20.237 40.4 40.4 0 0 0 -5.9-4.875 32 32 0 1 0 -44.752.016 40.1 40.1 0 0 0 -16.819 25.1 56 56 0 1 1 78.378 0z" fill="url(#New_Gradient_Swatch_2)"/><path d="m96 168a72 72 0 1 0 -72-72 72.081 72.081 0 0 0 72 72zm-24-21.414v-2.586a24 24 0 1 1 48 0v2.586a55.9 55.9 0 0 1 -48 0zm8-58.586a16 16 0 1 1 16 16 16.019 16.019 0 0 1 -16-16zm16-48a55.964 55.964 0 0 1 39.191 95.95 39.715 39.715 0 0 0 -10.9-20.237 40.4 40.4 0 0 0 -5.9-4.875 32 32 0 1 0 -44.752.016 40.1 40.1 0 0 0 -16.819 25.1 55.964 55.964 0 0 1 39.18-95.954z" fill="url(#New_Gradient_Swatch_2)"/><path d="m256 128a128 128 0 1 0 128 128 128.145 128.145 0 0 0 -128-128zm108.11 98.725-20.436 5.11-39.674-6.612v-17.223a8 8 0 0 0 -1.344-4.438l-16-24a8.02 8.02 0 0 0 -2.218-2.218l-21.024-14.017-2.748-19.227a112.219 112.219 0 0 1 103.444 82.625zm-220.11 29.275a112.122 112.122 0 0 1 61.164-99.783l10.836 21.672v38.111a8 8 0 0 0 4.422 7.155l25.416 12.708-12.138 30.342-29.28 14.64a8 8 0 0 0 -4.42 7.155v24a8 8 0 0 0 1.344 4.438l14.656 21.984v22.188a112.182 112.182 0 0 1 -72-104.61zm88 109.4v-29.4a8 8 0 0 0 -1.344-4.438l-14.656-21.984v-16.634l27.578-13.789a8 8 0 0 0 3.85-4.184l16-40a8 8 0 0 0 -3.85-10.126l-27.578-13.789v-35.056a7.994 7.994 0 0 0 -.845-3.578l-11.23-22.46a111.16 111.16 0 0 1 24.646-5.383l3.51 24.553a8 8 0 0 0 3.481 5.524l22.669 15.113 13.769 20.653v21.578a8 8 0 0 0 6.685 7.892l48 8a8.025 8.025 0 0 0 3.256-.131l21.237-5.311a112.228 112.228 0 0 1 -1.348 35.521l-10.252-5.126a7.994 7.994 0 0 0 -3.578-.845h-48a8 8 0 0 0 -7.428 5.029l-15.072 37.693-21.933 14.622a8 8 0 0 0 -3.482 7.787l4.393 30.772c-1.485.058-2.974.1-4.473.1a112.013 112.013 0 0 1 -24.005-2.603zm44.383.732-3.751-26.275 19.806-13.2a8 8 0 0 0 2.99-3.685l13.989-34.972h40.694l11.36 5.68a112.379 112.379 0 0 1 -85.088 72.455z" fill="url(#New_Gradient_Swatch_2-3)"/><path d="m320 304h16v16h-16z" fill="url(#New_Gradient_Swatch_2-4)"/><path d="m320 200h16v16h-16z" fill="url(#New_Gradient_Swatch_2-4)"/><path d="m184 192h16v16h-16z" fill="url(#New_Gradient_Swatch_2-6)"/><path d="m168 280h16v16h-16z" fill="url(#New_Gradient_Swatch_2-7)"/><path d="m312 408h16v16h-16z" fill="url(#New_Gradient_Swatch_2-8)"/><path d="m280 408h16v16h-16z" fill="url(#New_Gradient_Swatch_2-9)"/><path d="m248 408h16v16h-16z" fill="url(#New_Gradient_Swatch_2-3)"/><path d="m216 408h16v16h-16z" fill="url(#New_Gradient_Swatch_2-11)"/><path d="m184 408h16v16h-16z" fill="url(#New_Gradient_Swatch_2-6)"/><path d="m416 344a72 72 0 1 0 72 72 72.081 72.081 0 0 0 -72-72zm-24 122.586v-2.586a24 24 0 0 1 48 0v2.586a55.9 55.9 0 0 1 -48 0zm8-58.586a16 16 0 1 1 16 16 16.019 16.019 0 0 1 -16-16zm55.187 47.954a40.1 40.1 0 0 0 -16.819-25.1 32 32 0 1 0 -44.752-.016 40.4 40.4 0 0 0 -5.9 4.875 39.715 39.715 0 0 0 -10.9 20.237 56 56 0 1 1 78.378 0z" fill="url(#New_Gradient_Swatch_2-13)"/><path d="m416 168a72 72 0 1 0 -72-72 72.081 72.081 0 0 0 72 72zm-24-21.414v-2.586a24 24 0 0 1 48 0v2.586a55.9 55.9 0 0 1 -48 0zm8-58.586a16 16 0 1 1 16 16 16.019 16.019 0 0 1 -16-16zm16-48a55.964 55.964 0 0 1 39.187 95.954 40.1 40.1 0 0 0 -16.819-25.1 32 32 0 1 0 -44.752-.016 40.4 40.4 0 0 0 -5.9 4.875 39.715 39.715 0 0 0 -10.9 20.237 55.964 55.964 0 0 1 39.184-95.95z" fill="url(#New_Gradient_Swatch_2-13)"/><path d="m312 88h16v16h-16z" fill="url(#New_Gradient_Swatch_2-8)"/><path d="m280 88h16v16h-16z" fill="url(#New_Gradient_Swatch_2-9)"/><path d="m248 88h16v16h-16z" fill="url(#New_Gradient_Swatch_2-3)"/><path d="m216 88h16v16h-16z" fill="url(#New_Gradient_Swatch_2-11)"/><path d="m184 88h16v16h-16z" fill="url(#New_Gradient_Swatch_2-6)"/><g fill="url(#New_Gradient_Swatch_2)"><path d="m88 312h16v16h-16z"/><path d="m88 280h16v16h-16z"/><path d="m88 248h16v16h-16z"/><path d="m88 216h16v16h-16z"/><path d="m88 184h16v16h-16z"/></g><path d="m408 312h16v16h-16z" fill="url(#New_Gradient_Swatch_2-13)"/><path d="m408 280h16v16h-16z" fill="url(#New_Gradient_Swatch_2-13)"/><path d="m408 248h16v16h-16z" fill="url(#New_Gradient_Swatch_2-13)"/><path d="m408 216h16v16h-16z" fill="url(#New_Gradient_Swatch_2-13)"/><path d="m408 184h16v16h-16z" fill="url(#New_Gradient_Swatch_2-13)"/></svg>