<svg id="Layer_5" enable-background="new 0 0 64 64" height="512" viewBox="0 0 64 64" width="512" xmlns="http://www.w3.org/2000/svg" xmlns:xlink="http://www.w3.org/1999/xlink"><linearGradient id="SVGID_1_" gradientUnits="userSpaceOnUse" x1="31.793" x2="31.793" y1="63.423" y2="1"><stop offset="0" stop-color="#9f2fff"/><stop offset="1" stop-color="#0bb1d3"/></linearGradient><path d="m47 25c0 1.103.897 2 2 2h2c2.206 0 4 1.794 4 4s-1.794 4-4 4v2h-2v-2c-2.206 0-4-1.794-4-4v-1h2v1c0 1.103.897 2 2 2h2c1.103 0 2-.897 2-2s-.897-2-2-2h-2c-2.206 0-4-1.794-4-4s1.794-4 4-4v-2h2v2c2.206 0 4 1.794 4 4h-2c0-1.103-.897-2-2-2h-2c-1.103 0-2 .897-2 2zm16-17v34c0 1.654-1.346 3-3 3h-36.739c.143.563.225 1.146.225 1.742v2.743h-2.743c-.219 0-.435-.035-.653-.056l1.016 13.994-7.106-2.369-7.105 2.369 1.014-13.969c-.215.02-.432.032-.651.032h-2.743v-2.743c0-1.084.273-2.145.751-3.11-1.02-.341-1.957-.91-2.74-1.693l-1.94-1.94 1.939-1.939c.766-.766 1.71-1.323 2.73-1.668-.48-.962-.741-2.028-.741-3.134v-2.743h2.486v-20.516c0-1.654 1.346-3 3-3h21.63l.21-.18c4.379-3.753 9.967-5.82 15.733-5.82 5.068 0 9.928 1.557 14.052 4.503l.144.103c.77.55 1.231 1.445 1.231 2.394zm-54 2v20.762c.472.122.93.287 1.368.504.16-.478.372-.936.632-1.37v-18.896h23.297c-.849-.559-1.678-1.153-2.456-1.82l-.211-.18h-21.63c-.552 0-1 .449-1 1zm48 29v-25.919c-2.961 1.258-6.148 1.919-9.427 1.919-3.317 0-6.566-.705-9.569-2h-25.004v14.586l1-1 1.939 1.939c.766.767 1.323 1.71 1.668 2.73.963-.48 2.028-.741 3.135-.741h2.743v2.743c0 1.084-.273 2.145-.751 3.11 1.02.341 1.957.91 2.74 1.693l.94.94zm-32.939 1.525.525-.525-.525-.525c-.952-.952-2.216-1.475-3.561-1.475-.964 0-1.897.289-2.703.803.11.348.183.711.193 1.092 1.293.291 2.49.927 3.435 1.872.034.034.063.072.097.107.956-.199 1.847-.657 2.539-1.349zm-8.864 3.272c-.348.11-.711.183-1.092.193-.291 1.293-.927 2.49-1.872 3.435-.034.034-.072.063-.107.097.199.957.657 1.847 1.349 2.539l.525.525.525-.525c.952-.952 1.475-2.216 1.475-3.561 0-.964-.289-1.897-.803-2.703zm6.288-11.282h-.743c-1.345 0-2.609.523-3.561 1.475-.681.682-1.137 1.546-1.343 2.479.331.173.639.382.907.637 1.121-.709 2.418-1.106 3.755-1.106.048 0 .096.006.144.007.535-.817.841-1.771.841-2.749zm-5.611-.037c-.199-.956-.657-1.847-1.349-2.539l-.525-.525-.525.525c-.952.952-1.475 2.216-1.475 3.561 0 .964.289 1.898.803 2.703.348-.11.711-.182 1.092-.193.291-1.293.927-2.49 1.872-3.435.035-.034.073-.063.107-.097zm-1.874 9.522c1.103 0 2-.897 2-2s-.897-2-2-2-2 .897-2 2 .897 2 2 2zm-7.485-8.742c0 1.345.523 2.609 1.475 3.561.682.681 1.546 1.137 2.479 1.343.173-.331.382-.639.637-.907-.709-1.121-1.106-2.417-1.106-3.755 0-.048.006-.096.007-.144-.817-.535-1.771-.841-2.749-.841h-.743zm-2.576 7.267c.952.952 2.216 1.475 3.561 1.475.964 0 1.897-.289 2.703-.803-.11-.348-.183-.711-.193-1.092-1.293-.291-2.49-.927-3.435-1.872-.034-.034-.063-.072-.097-.107-.957.199-1.847.657-2.539 1.349l-.525.525zm3.319 6.96c1.345 0 2.609-.523 3.561-1.475.681-.682 1.137-1.546 1.343-2.479-.331-.173-.639-.382-.907-.637-1.121.709-2.418 1.106-3.755 1.106-.048 0-.096-.006-.144-.007-.535.817-.841 1.771-.841 2.749v.743zm10.79 1.437c-.141-.059-.279-.12-.416-.187-.341 1.02-.91 1.957-1.693 2.74l-1.939 1.939-1.939-1.939c-.766-.766-1.323-1.71-1.668-2.73-.146.073-.292.147-.443.209l-.845 11.623 3.895-1.298v-4.279h2v4.279l3.895 1.298zm3.437-2.18c0-1.345-.523-2.609-1.475-3.561-.682-.681-1.546-1.137-2.479-1.343-.173.331-.382.639-.637.907.709 1.121 1.106 2.418 1.106 3.755 0 .048-.006.096-.007.144.817.535 1.771.841 2.749.841h.743zm39.515-4.742v-31.092c-.651.435-1.317.838-2 1.205v28.887h-32.586l-.939.939c-.42.42-.904.761-1.412 1.061h35.937c.552 0 1-.448 1-1zm0-34c0-.304-.147-.591-.395-.767l-.143-.103c-3.782-2.702-8.239-4.13-12.889-4.13-4.554 0-8.981 1.413-12.688 4h3.701l2.707-2.707 1.414 1.414-1.293 1.293h3.172l2.707-2.707 1.414 1.414-1.293 1.293h3.172l2.707-2.707 1.414 1.414-1.293 1.293h2.586v2h-2.586l1.293 1.293-1.414 1.414-2.707-2.707h-3.172l1.293 1.293-1.414 1.414-2.707-2.707h-3.172l1.293 1.293-1.414 1.414-2.707-2.707h-3.701c3.707 2.587 8.134 4 12.688 4 4.649 0 9.106-1.428 12.89-4.131l.142-.101c.248-.177.395-.464.395-.768zm-46 7h28v6h-28zm2 4h24v-2h-24zm-2 6h4v-2h-4zm18-2h-12v2h12zm0 4h-12v2h12zm-8 4h10v6h-10zm2 4h6v-2h-6zm10-2h6v-2h-6zm0 4h6v-2h-6zm-2-14v2h2v-2zm4 2h4v-2h-4zm-4 4h8v-2h-8z" fill="url(#SVGID_1_)"/></svg>