<?xml version="1.0" encoding="utf-8"?>
<!-- Generator: Adobe Illustrator 22.0.1, SVG Export Plug-In . SVG Version: 6.00 Build 0)  -->
<svg version="1.1" id="Capa_1" xmlns="http://www.w3.org/2000/svg" xmlns:xlink="http://www.w3.org/1999/xlink" x="0px" y="0px"
	 viewBox="0 0 512 512" style="enable-background:new 0 0 512 512;" xml:space="preserve">
<style type="text/css">
	.st0{fill:#FED02B;}
	.st1{fill:#7984EB;}
	.st2{fill:#979FEF;}
	.st3{fill:#6677D8;}
</style>
<g>
	<path class="st0" d="M512,256.1c0,68.4-26.6,132.7-75,181c-22.4,22.4-48.2,40.1-76.3,52.7c-7.6,3.4-15.3,6.4-23.2,9.1
		c-25.9,8.7-53.4,13.2-81.5,13.2c-1,0-1.9,0-2.9,0c-8.6-0.1-17.1-0.6-25.6-1.5c-57.6-6.3-111-31.8-152.6-73.4
		c-48.4-48.3-75-112.6-75-181c0-8.8,0.4-17.5,1.3-26.1c3-29.6,11-58.1,23.7-84.6c3-6.2,6.3-12.4,9.8-18.3c4-6.9,8.4-13.6,13-20.1
		C55.9,95.8,65,85.1,75,75.1c48.3-48.3,112.6-75,181-75c54.7,0,106.8,17,150.2,48.6c10.9,7.9,21.2,16.7,30.9,26.4
		c16,16,29.7,33.9,40.8,53c0.2,0.4,0.5,0.8,0.7,1.2c4,6.9,7.6,14,10.9,21.3C504.2,183.4,512,219.2,512,256.1L512,256.1z"/>
	<path class="st0" d="M337.5,498.9c37.1-12.4,71-33.3,99.5-61.8c48.4-48.4,75-112.6,75-181c0-37-7.8-72.8-22.6-105.5
		c-3.5-7.7-7.3-15.2-11.6-22.5c-11.1-19.1-24.7-36.9-40.8-53c-48.4-48.3-112.6-75-181-75v512C284.1,512.1,311.6,507.6,337.5,498.9z"
		/>
	<path class="st1" d="M468.7,113.6l-16.9,0.8C289.2,121.3,256,256.1,256,256.1s-63.4,18.4-131.4-15.2l1-13.7
		c2-42.5,24.8-85,62.4-116.8c22.8-19.2,50.9-34.5,83.4-45.3c36.4-12.1,78.5-18.6,125.3-19.5c3.3,0,6.4,0.9,9.1,2.8
		c0.1,0.1,0.3,0.2,0.4,0.3c10.9,7.9,21.2,16.7,30.9,26.4C448.9,87,459.5,99.9,468.7,113.6z"/>
	<path class="st2" d="M308.5,377.6l-12.4,6c-20.4,10.5-43.9,15.8-68.5,15.8c-20.9,0-42.5-3.8-63.8-11.5
		c-28.1-10.1-55.3-26.8-80.9-49.6c-28.6-25.4-55.4-58.6-79.6-98.7c-1.7-2.8-2.4-6-2.1-9.3c0-0.1,0-0.2,0-0.3
		c3-29.6,11-58.1,23.7-84.6c0.4-0.8,0.7-1.5,1.1-2.3l9.1,14.3c27.1,42.6,58.7,68.3,89.3,83.5c68,33.6,131.4,15.2,131.4,15.2
		s4,3.9,9.9,11.3C280.1,285.3,305,323.9,308.5,377.6L308.5,377.6z"/>
	<path class="st3" d="M413.7,365c-7.7,37.5-23.1,77.3-45.8,118.3c-1.6,2.9-4,5.1-7,6.4c-0.1,0-0.1,0.1-0.2,0.2
		c-7.6,3.4-15.3,6.4-23.2,9.1c-20.6,6.9-42.2,11.2-64.4,12.6l7.8-14.9c23.4-44.8,29.8-85,27.6-119.1c-3.5-53.6-28.4-92.2-42.6-110.1
		c-5.9-7.4-9.9-11.3-9.9-11.3s1.3-5.4,4.8-14.2c8.4-21.3,29.4-62.1,74.1-92l11.4,7.7c35.8,23,61.3,64,69.9,112.5
		C421.4,299.5,420.6,331.4,413.7,365L413.7,365z"/>
	<path class="st2" d="M256.1,256.3v140.6c14.2-2.5,27.6-7,40-13.3l12.4-6c-3.5-53.6-28.4-92.2-42.6-110.1
		C260.7,260.8,256.9,257,256.1,256.3z"/>
	<path class="st1" d="M406.2,48.7c-0.1-0.1-0.3-0.2-0.4-0.3c-2.6-1.9-5.8-2.9-9.1-2.8c-46.8,0.9-89,7.5-125.3,19.5
		c-5.2,1.7-10.4,3.6-15.4,5.6v185.4c0,0,33.2-134.8,195.8-141.8l16.9-0.8C459.5,99.9,448.9,87,437,75.1
		C427.3,65.4,417,56.6,406.2,48.7L406.2,48.7z"/>
</g>
</svg>
